# xmcd
#
# Track frame offsets:
#	150
#	14815
#	24920
#	36156
#	48998
#	62081
#	71784
#	86932
#	94865
#	103121
#	112619
#	119948
#	128187
#	138908
#	148878
#	159509
#	169972
#	180482
#	188596
#
# Disc length: 2652 seconds
#
# Revision: 1
# Processed by: cddbd v1.5.2PL0 Copyright (c) Steve Scherf et al.
# Submitted via: audiograbber 1.83.01
#
DISCID=140a5a13
DTITLE=Charlie Walden/Emily& Dennis Buckhannon - Traditional Fiddle Music Of Mi
DTITLE=ssouri
DYEAR=1981
DGENRE=Fiddle
TTITLE0=The Irish Cobbler
TTITLE1=Long John
TTITLE2=Mother's Waltz
TTITLE3=Tune In C
TTITLE4=Stars and Stripes Waltz
TTITLE5=Ned Kendall and Constitution Hornpipes
TTITLE6=Vee Latty's B-Flat Waltz
TTITLE7=Rosebud Hornpipe
TTITLE8=Casey's Old Time Waltz
TTITLE9=Jesse's Quadrille
TTITLE10=Irish Reel
TTITLE11=Opera Reel
TTITLE12=Smith's Reel
TTITLE13=Bill Powell's Waltz
TTITLE14=Carrollton County
TTITLE15=Spotted Pony
TTITLE16=Zack Wheat's Piece
TTITLE17=Johnny Don't Come Home Drunk
TTITLE18=Bill Carton's Hornpipe or Jeff City
EXTD=
EXTT0=
EXTT1=
EXTT2=
EXTT3=
EXTT4=
EXTT5=
EXTT6=
EXTT7=
EXTT8=
EXTT9=
EXTT10=
EXTT11=
EXTT12=
EXTT13=
EXTT14=
EXTT15=
EXTT16=
EXTT17=
EXTT18=
PLAYORDER=
